<svg width="24" height="24" viewBox="0 0 24 24" fill="none" xmlns="http://www.w3.org/2000/svg">
<path d="M19.24 5.57918H18.84L15.46 2.19918C15.328 2.06934 15.1502 1.99658 14.965 1.99658C14.7798 1.99658 14.602 2.06934 14.47 2.19918C14.2 2.46918 14.2 2.90918 14.47 3.18918L16.86 5.57918H7.14L9.53 3.18918C9.8 2.91918 9.8 2.47918 9.53 2.19918C9.39796 2.06934 9.22019 1.99658 9.035 1.99658C8.84981 1.99658 8.67204 2.06934 8.54 2.19918L5.17 5.57918H4.77C3.87 5.57918 2 5.57918 2 8.13918C2 9.10918 2.2 9.74918 2.62 10.1692C2.86 10.4192 3.15 10.5492 3.46 10.6192C3.75 10.6892 4.06 10.6992 4.36 10.6992H19.64C19.95 10.6992 20.24 10.6792 20.52 10.6192C21.36 10.4192 22 9.81918 22 8.13918C22 5.57918 20.13 5.57918 19.24 5.57918ZM19.05 12.0002H4.87C4.25 12.0002 3.78 12.5502 3.88 13.1602L4.72 18.3002C5 20.0202 5.75 22.0002 9.08 22.0002H14.69C18.06 22.0002 18.66 20.3102 19.02 18.4202L20.03 13.1902C20.0585 13.0455 20.0546 12.8963 20.0186 12.7534C19.9825 12.6104 19.9152 12.4772 19.8215 12.3634C19.7277 12.2496 19.6099 12.1579 19.4765 12.0951C19.3431 12.0323 19.1974 11.9999 19.05 12.0002ZM10.61 18.4502C10.6151 18.5446 10.6008 18.639 10.5682 18.7278C10.5356 18.8165 10.4852 18.8976 10.4202 18.9663C10.3551 19.0349 10.2768 19.0895 10.1899 19.1269C10.1031 19.1642 10.0095 19.1835 9.915 19.1835C9.82046 19.1835 9.72691 19.1642 9.64006 19.1269C9.55321 19.0895 9.47487 19.0349 9.40984 18.9663C9.34481 18.8976 9.29443 18.8165 9.26179 18.7278C9.22915 18.639 9.21493 18.5446 9.22 18.4502V15.1502C9.22 14.7702 9.53 14.4502 9.92 14.4502C10.1039 14.4528 10.2794 14.5277 10.4085 14.6587C10.5376 14.7897 10.61 14.9663 10.61 15.1502V18.4502ZM14.89 18.4502C14.89 18.8402 14.58 19.1502 14.19 19.1502C13.81 19.1502 13.49 18.8402 13.49 18.4502V15.1502C13.49 14.7702 13.81 14.4502 14.19 14.4502C14.58 14.4502 14.89 14.7702 14.89 15.1502V18.4502Z" fill="black"/>
</svg>
