<svg width="24" height="24" viewBox="0 0 24 24" fill="none" xmlns="http://www.w3.org/2000/svg">
<path d="M21.2714 9.17799C20.9814 8.71799 20.6714 8.28799 20.3514 7.88799C20.2641 7.77733 20.1544 7.68637 20.0295 7.62108C19.9046 7.55579 19.7673 7.51764 19.6266 7.50914C19.4859 7.50065 19.345 7.52199 19.2131 7.57177C19.0813 7.62154 18.9614 7.69864 18.8614 7.79799L15.8614 10.798C16.0814 11.458 16.1214 12.218 15.9214 13.008C15.7427 13.7071 15.3792 14.3453 14.8689 14.8555C14.3587 15.3658 13.7205 15.7293 13.0214 15.908C12.2314 16.108 11.4714 16.068 10.8114 15.848L8.35141 18.308C7.85141 18.808 8.01141 19.688 8.68141 19.948C9.75141 20.358 10.8614 20.568 12.0014 20.568C13.7814 20.568 15.5114 20.048 17.0914 19.078C18.7014 18.078 20.1514 16.608 21.3214 14.738C22.2714 13.228 22.2214 10.688 21.2714 9.17799ZM14.0204 9.97999L9.98041 14.02C9.47041 13.5 9.14041 12.78 9.14041 12C9.14041 10.43 10.4204 9.13999 12.0004 9.13999C12.7804 9.13999 13.5004 9.46999 14.0204 9.97999Z" fill="black"/>
<path d="M18.25 5.75018L14.86 9.14018C14.486 8.7628 14.0403 8.46401 13.5492 8.26137C13.058 8.05873 12.5313 7.95632 12 7.96018C9.76 7.96018 7.96 9.77018 7.96 12.0002C7.96 13.1202 8.41 14.1302 9.14 14.8602L5.76 18.2502H5.75C4.64 17.3502 3.62 16.2002 2.75 14.8402C1.75 13.2702 1.75 10.7202 2.75 9.15018C3.91 7.33018 5.33 5.90018 6.91 4.92018C8.49 3.96018 10.22 3.43018 12 3.43018C14.23 3.43018 16.39 4.25018 18.25 5.75018ZM14.858 11.9982C14.858 13.5682 13.578 14.8582 11.998 14.8582C11.938 14.8582 11.888 14.8582 11.828 14.8382L14.838 11.8282C14.858 11.8882 14.858 11.9382 14.858 11.9982Z" fill="black"/>
<path d="M21.7689 2.22891C21.4689 1.92891 20.9789 1.92891 20.6789 2.22891L2.22891 20.6889C1.92891 20.9889 1.92891 21.4789 2.22891 21.7789C2.3001 21.8499 2.38468 21.9059 2.47775 21.9439C2.57081 21.9818 2.6705 22.0009 2.771 22C2.8715 21.999 2.97081 21.9781 3.06316 21.9385C3.15551 21.8988 3.23904 21.8412 3.30891 21.7689L21.7689 3.30891C22.0789 3.00891 22.0789 2.52891 21.7689 2.22891Z" fill="black"/>
</svg>
