<svg width="24" height="24" viewBox="0 0 24 24" fill="none" xmlns="http://www.w3.org/2000/svg">
<path d="M18.3281 5.67001L6.58812 17.41C6.14812 17.85 5.40812 17.79 5.04812 17.27C3.80812 15.46 3.07812 13.32 3.07812 11.12V6.73001C3.07812 5.91001 3.69813 4.98001 4.45813 4.67001L10.0281 2.39001C10.6495 2.13253 11.3155 2 11.9881 2C12.6607 2 13.3268 2.13253 13.9481 2.39001L17.9981 4.04001C18.6581 4.31001 18.8281 5.17001 18.3281 5.67001ZM19.2701 7.04201C19.9201 6.49201 20.9101 6.96201 20.9101 7.81201V11.122C20.9101 16.012 17.3601 20.592 12.5101 21.932C12.1801 22.022 11.8201 22.022 11.4801 21.932C10.0764 21.5378 8.76224 20.8756 7.61013 19.982C7.13013 19.612 7.08012 18.912 7.50012 18.482C9.68012 16.252 16.0601 9.75201 19.2701 7.04201Z" fill="black"/>
</svg>
